# xmcd
#
# Track frame offsets: 
#        150
#        17216
#        33132
#        49801
#        64106
#        77167
#        91142
#        104273
#        119066
#        127438
#        136618
#        157996
#        169128
#        178696
#        196457
#        214300
#
# Disc length: 3027 seconds
#
# Revision: 0
# Processed by: cddbd v1.5.2PL0 Copyright (c) Steve Scherf et al.
# Submitted via: ExactAudioCopy v0.99pb5
#
DISCID=e20bd110
DTITLE=On One - 40 ounce Album and Mixtape Disc 1
DYEAR=2004
DGENRE=Rap
TTITLE0=V-Town Anthem - Jay Tee, Mac Dree, Da Unda Dogg, Young Dru, Su
TTITLE0=spects, Kobra
TTITLE1=Dope For Sale - N2Deep
TTITLE2=What Would You Do - Romero, Don Cisco
TTITLE3=Gimme The Money - Obie Trice
TTITLE4=When Our Shit Drops - Arsen, Mista Kane
TTITLE5=Tonight - Balance
TTITLE6=Not Fuckin' Wit' you - Young Dru, Young Sal, Savvy
TTITLE7=I Need To Know - Jay Tee, Dutch, B-12
TTITLE8=Green On Mine - M-Dash, Stitzon Skrilla
TTITLE9=What's Shakin' - Sean T, Mr. Sandman
TTITLE10=The Big Bay - Turf Talk, Kaveo, Jay Tee, Celly Cell, Mugzi
TTITLE11=My Glock - B-12
TTITLE12=Baby - Playa Rae
TTITLE13=How We Roll - B-12, I-Rocc, Smigg Dirtee
TTITLE14=Now You Know - Luni Coleone, Damu, Ecay Uno
TTITLE15=Die Or Get Rolled On - Young Dru
EXTD=
EXTT0=
EXTT1=
EXTT2=
EXTT3=
EXTT4=
EXTT5=
EXTT6=
EXTT7=
EXTT8=
EXTT9=
EXTT10=
EXTT11=
EXTT12=
EXTT13=
EXTT14=
EXTT15=
PLAYORDER=
